<svg width="576" height="512" viewBox="0 0 576 512" fill="none" xmlns="http://www.w3.org/2000/svg">
<g clip-path="url(#clip0_0_1)">
<path d="M208 0C178.1 0 153.3 20.5 146.2 48.2C145.4 48.2 144.8 48 144 48C108.7 48 80 76.7 80 112C80 116.8 80.6 121.5 81.7 126C52.5 138 32 166.6 32 200C32 212.6 35.2 224.3 40.3 234.9C16.3 248.7 0 274.3 0 304C0 337.3 20.4 365.9 49.4 377.9C48.5 382.5 48 387.2 48 392C48 431.8 80.2 464 120 464C124.1 464 128.1 463.5 132 462.8C141.6 491.3 168.2 512 200 512C239.8 512 272 479.8 272 440V64C272 28.7 243.3 0 208 0ZM576 304C576 274.3 559.7 248.7 535.7 234.9C540.9 224.3 544 212.6 544 200C544 166.6 523.5 138 494.3 126C495.3 121.5 496 116.8 496 112C496 76.7 467.3 48 432 48C431.2 48 430.5 48.2 429.8 48.2C422.7 20.5 397.9 0 368 0C332.7 0 304 28.6 304 64V440C304 479.8 336.2 512 376 512C407.8 512 434.4 491.3 444 462.8C447.9 463.5 451.9 464 456 464C495.8 464 528 431.8 528 392C528 387.2 527.5 382.5 526.6 377.9C555.6 365.9 576 337.3 576 304Z" fill="#0DCAF0"/>
</g>
<path d="M222 408C218.667 408 216.067 407.067 214.2 405.2C212.333 403.333 211.4 400.733 211.4 397.4V160.6C211.4 157.267 212.333 154.667 214.2 152.8C216.067 150.933 218.667 150 222 150C225.2 150 227.733 150.933 229.6 152.8C231.467 154.667 232.4 157.267 232.4 160.6V397.4C232.4 400.733 231.467 403.333 229.6 405.2C227.733 407.067 225.2 408 222 408Z" fill="#212529"/>
<path d="M350 405C342.933 405 339.4 401.467 339.4 394.4V157.8C339.4 150.733 342.933 147.2 350 147.2H443.6C466.4 147.2 483.6 153.067 495.2 164.8C506.933 176.533 512.8 193.8 512.8 216.6V228.6C512.8 251.267 506.933 268.467 495.2 280.2C483.6 291.933 466.4 297.8 443.6 297.8H360.4V394.4C360.4 401.467 356.933 405 350 405ZM360.4 276.8H443.6C460.4 276.8 472.6 273 480.2 265.4C487.933 257.667 491.8 245.4 491.8 228.6V216.6C491.8 199.667 487.933 187.4 480.2 179.8C472.6 172.067 460.4 168.2 443.6 168.2H360.4V276.8Z" fill="#212529"/>
<defs>
<clipPath id="clip0_0_1">
<rect width="576" height="512" fill="white"/>
</clipPath>
</defs>
</svg>
