<svg width="1422" height="512" viewBox="0 0 1422 512" fill="none" xmlns="http://www.w3.org/2000/svg">
<g clip-path="url(#clip0_0_1)">
<path d="M1054 0C1024.1 0 999.3 20.5 992.2 48.2C991.4 48.2 990.8 48 990 48C954.7 48 926 76.7 926 112C926 116.8 926.6 121.5 927.7 126C898.5 138 878 166.6 878 200C878 212.6 881.2 224.3 886.3 234.9C862.3 248.7 846 274.3 846 304C846 337.3 866.4 365.9 895.4 377.9C894.5 382.5 894 387.2 894 392C894 431.8 926.2 464 966 464C970.1 464 974.1 463.5 978 462.8C987.6 491.3 1014.2 512 1046 512C1085.8 512 1118 479.8 1118 440V64C1118 28.7 1089.3 0 1054 0ZM1422 304C1422 274.3 1405.7 248.7 1381.7 234.9C1386.9 224.3 1390 212.6 1390 200C1390 166.6 1369.5 138 1340.3 126C1341.3 121.5 1342 116.8 1342 112C1342 76.7 1313.3 48 1278 48C1277.2 48 1276.5 48.2 1275.8 48.2C1268.7 20.5 1243.9 0 1214 0C1178.7 0 1150 28.6 1150 64V440C1150 479.8 1182.2 512 1222 512C1253.8 512 1280.4 491.3 1290 462.8C1293.9 463.5 1297.9 464 1302 464C1341.8 464 1374 431.8 1374 392C1374 387.2 1373.5 382.5 1372.6 377.9C1401.6 365.9 1422 337.3 1422 304Z" fill="#0DCAF0"/>
</g>
<path d="M1068 408C1064.67 408 1062.07 407.067 1060.2 405.2C1058.33 403.333 1057.4 400.733 1057.4 397.4V160.6C1057.4 157.267 1058.33 154.667 1060.2 152.8C1062.07 150.933 1064.67 150 1068 150C1071.2 150 1073.73 150.933 1075.6 152.8C1077.47 154.667 1078.4 157.267 1078.4 160.6V397.4C1078.4 400.733 1077.47 403.333 1075.6 405.2C1073.73 407.067 1071.2 408 1068 408Z" fill="#212529"/>
<path d="M1196 405C1188.93 405 1185.4 401.467 1185.4 394.4V157.8C1185.4 150.733 1188.93 147.2 1196 147.2H1289.6C1312.4 147.2 1329.6 153.067 1341.2 164.8C1352.93 176.533 1358.8 193.8 1358.8 216.6V228.6C1358.8 251.267 1352.93 268.467 1341.2 280.2C1329.6 291.933 1312.4 297.8 1289.6 297.8H1206.4V394.4C1206.4 401.467 1202.93 405 1196 405ZM1206.4 276.8H1289.6C1306.4 276.8 1318.6 273 1326.2 265.4C1333.93 257.667 1337.8 245.4 1337.8 228.6V216.6C1337.8 199.667 1333.93 187.4 1326.2 179.8C1318.6 172.067 1306.4 168.2 1289.6 168.2H1206.4V276.8Z" fill="#212529"/>
<path d="M64.75 348.75C49.8333 348.75 38.75 345.458 31.5 338.875C24.3333 332.208 20.5 321.75 20 307.5C19.9167 305.5 20.4583 303.917 21.625 302.75C22.875 301.5 24.5 300.875 26.5 300.875C28.5 300.875 30.0833 301.458 31.25 302.625C32.4167 303.792 33.0833 305.375 33.25 307.375C33.5833 317.875 36.0833 325.208 40.75 329.375C45.4167 333.542 53.4167 335.625 64.75 335.625H100.75C112.583 335.625 120.792 333.333 125.375 328.75C130.042 324.083 132.375 315.917 132.375 304.25C132.375 292.417 130.042 284.208 125.375 279.625C120.792 274.958 112.583 272.625 100.75 272.625H66.5C51.8333 272.625 41.0833 269.208 34.25 262.375C27.4167 255.542 24 244.833 24 230.25C24 215.667 27.375 204.958 34.125 198.125C40.9583 191.292 51.6667 187.875 66.25 187.875H101.25C115.25 187.875 125.625 191 132.375 197.25C139.208 203.5 142.875 213.333 143.375 226.75C143.542 228.75 143 230.375 141.75 231.625C140.583 232.792 138.958 233.375 136.875 233.375C134.958 233.375 133.417 232.792 132.25 231.625C131.083 230.458 130.417 228.875 130.25 226.875C129.917 217.292 127.583 210.583 123.25 206.75C118.917 202.917 111.583 201 101.25 201H66.25C55.3333 201 47.75 203.167 43.5 207.5C39.25 211.75 37.125 219.333 37.125 230.25C37.125 241.167 39.25 248.792 43.5 253.125C47.8333 257.375 55.5 259.5 66.5 259.5H100.75C116.25 259.5 127.583 263.125 134.75 270.375C141.917 277.542 145.5 288.833 145.5 304.25C145.5 319.667 141.917 330.958 134.75 338.125C127.583 345.208 116.25 348.75 100.75 348.75H64.75ZM195.527 349C191.111 349 188.902 346.792 188.902 342.375V194.5C188.902 190.083 191.111 187.875 195.527 187.875C198.694 187.875 201.194 189.333 203.027 192.25L265.277 287.375L262.277 287.75L324.527 192.25C326.277 189.333 328.902 187.875 332.402 187.875C336.319 187.875 338.277 190.083 338.277 194.5V342.375C338.277 346.792 336.111 349 331.777 349C327.361 349 325.152 346.792 325.152 342.375V207.625L329.027 208.875L271.277 296.875C269.444 299.708 266.819 301.125 263.402 301.125C260.402 301.125 257.986 299.708 256.152 296.875L198.402 208.875L202.027 210.25V342.375C202.027 346.792 199.861 349 195.527 349ZM372.322 348.375C368.322 346.625 367.114 343.708 368.697 339.625L430.697 193C432.031 189.583 434.489 187.875 438.072 187.875H438.822C442.239 187.958 444.656 189.667 446.072 193L508.072 339.625C509.739 343.708 508.572 346.625 504.572 348.375C500.489 350.042 497.656 348.875 496.072 344.875L479.447 305.5H397.572L380.947 344.875C379.281 348.875 376.406 350.042 372.322 348.375ZM402.947 292.375H473.947L438.447 208.625L402.947 292.375ZM647.512 349.25C645.678 350.333 644.012 350.708 642.512 350.375C641.012 350.042 639.678 349 638.512 347.25L597.512 282H551.637V342.375C551.637 346.792 549.47 349 545.137 349C540.72 349 538.512 346.792 538.512 342.375V194.5C538.512 190.083 540.72 187.875 545.137 187.875H603.637C617.887 187.875 628.637 191.542 635.887 198.875C643.22 206.208 646.887 217 646.887 231.25V238.75C646.887 251.333 644.012 261.208 638.262 268.375C632.512 275.542 624.012 279.917 612.762 281.5L649.637 340.25C651.97 344.083 651.262 347.083 647.512 349.25ZM551.637 268.875H603.637C614.137 268.875 621.762 266.5 626.512 261.75C631.345 256.917 633.762 249.25 633.762 238.75V231.25C633.762 220.667 631.345 213 626.512 208.25C621.762 203.417 614.137 201 603.637 201H551.637V268.875ZM729.447 349.125C727.447 349.125 725.822 348.542 724.572 347.375C723.406 346.208 722.822 344.625 722.822 342.625V200.875H669.697C667.697 200.875 666.072 200.292 664.822 199.125C663.656 197.958 663.072 196.375 663.072 194.375C663.072 192.375 663.656 190.792 664.822 189.625C666.072 188.375 667.697 187.75 669.697 187.75H789.197C791.197 187.75 792.781 188.375 793.947 189.625C795.114 190.792 795.697 192.375 795.697 194.375C795.697 196.375 795.114 197.958 793.947 199.125C792.781 200.292 791.197 200.875 789.197 200.875H735.947V342.625C735.947 344.542 735.322 346.125 734.072 347.375C732.906 348.542 731.364 349.125 729.447 349.125Z" fill="#0DCAF0"/>
<rect x="0.5" y="378.5" width="814" height="7" fill="#0DCAF0" stroke="#0DCAF0"/>
<defs>
<clipPath id="clip0_0_1">
<rect width="576" height="512" fill="white" transform="translate(846)"/>
</clipPath>
</defs>
</svg>
